<?xml version="1.0" standalone="no"?>
<!DOCTYPE svg PUBLIC "-//W3C//DTD SVG 20010904//EN"
 "http://www.w3.org/TR/2001/REC-SVG-20010904/DTD/svg10.dtd">
<svg version="1.0" xmlns="http://www.w3.org/2000/svg"
 width="313.000000pt" height="313.000000pt" viewBox="0 0 313.000000 313.000000"
 preserveAspectRatio="xMidYMid meet">
<metadata>
Created by potrace 1.11, written by Peter Selinger 2001-2013
</metadata>
<g transform="translate(0.000000,313.000000) scale(0.100000,-0.100000)"
fill="#000000" stroke="none">
<path d="M1429 2585 c-2 -2 -27 -6 -56 -9 -180 -19 -435 -125 -479 -200 -23
-39 -26 -160 -5 -200 26 -47 50 -44 194 28 185 92 291 119 452 113 95 -3 130
-8 169 -26 147 -64 199 -168 205 -403 l3 -108 -134 -1 c-180 -1 -275 -5 -323
-12 -22 -4 -60 -9 -85 -12 -25 -3 -53 -8 -62 -11 -9 -3 -25 -6 -35 -8 -40 -8
-177 -59 -212 -79 -185 -107 -274 -261 -272 -473 2 -287 178 -477 483 -522
229 -34 449 34 628 195 27 25 50 42 51 39 0 -3 0 -41 0 -83 1 -101 4 -110 44
-123 53 -18 191 -11 219 11 l22 18 -1 668 c-1 367 -5 686 -9 708 -26 141 -70
245 -135 314 -81 86 -218 149 -366 169 -66 9 -289 15 -296 7z m481 -1228 l0
-184 -60 -60 c-148 -149 -263 -203 -422 -198 -195 7 -319 137 -302 319 17 173
136 266 384 299 14 2 109 4 213 6 l187 2 0 -184z"/>
</g>
</svg>
