<?xml version="1.0" standalone="no"?>
<!DOCTYPE svg PUBLIC "-//W3C//DTD SVG 20010904//EN"
 "http://www.w3.org/TR/2001/REC-SVG-20010904/DTD/svg10.dtd">
<svg version="1.0" xmlns="http://www.w3.org/2000/svg"
 width="800.000000pt" height="800.000000pt" viewBox="0 0 800.000000 800.000000"
 preserveAspectRatio="xMidYMid meet">
<metadata>
Created by potrace 1.14, written by Peter Selinger 2001-2017
</metadata>
<g transform="translate(0.000000,800.000000) scale(0.100000,-0.100000)"
fill="#000000" stroke="none">
<path d="M0 4000 l0 -4000 4000 0 4000 0 0 4000 0 4000 -4000 0 -4000 0 0
-4000z m4892 2362 c54 -125 134 -310 179 -412 44 -102 135 -311 201 -465 66
-154 152 -352 190 -440 38 -88 103 -236 143 -330 93 -217 182 -421 200 -460
15 -34 97 -223 160 -370 24 -55 74 -172 113 -260 471 -1082 742 -1717 736
-1727 -5 -7 -3 -8 6 -3 10 6 12 4 7 -8 -3 -9 1 -18 10 -21 8 -4 13 -13 9 -21
-7 -20 4 -46 16 -39 6 4 8 1 6 -7 -3 -8 0 -25 7 -39 21 -40 155 -354 155 -363
0 -4 -336 -6 -747 -5 l-747 3 -124 285 c-168 388 -454 1047 -545 1260 l-75
175 46 4 47 5 -50 5 -49 6 -32 75 c-18 41 -42 95 -53 120 -10 25 -43 99 -71
165 -48 112 -72 167 -105 240 -7 17 -25 58 -39 92 -14 35 -38 89 -52 120 -47
106 -52 118 -78 180 -14 35 -38 89 -52 120 -47 107 -52 118 -79 183 -15 36
-35 83 -45 105 -32 70 -66 148 -101 232 -19 46 -36 83 -39 83 -3 0 -72 -154
-153 -342 -81 -189 -416 -964 -745 -1723 l-599 -1380 -752 -3 c-432 -1 -751 2
-749 7 1 5 507 1172 1123 2594 l1120 2586 755 1 755 0 97 -228z"/>
<path d="M5003 3113 c32 -2 81 -2 110 0 29 2 3 3 -58 3 -60 0 -84 -1 -52 -3z"/>
<path d="M5198 3103 c18 -2 45 -2 60 0 15 2 0 4 -33 4 -33 0 -45 -2 -27 -4z"/>
<path d="M5308 3093 c12 -2 32 -2 45 0 12 2 2 4 -23 4 -25 0 -35 -2 -22 -4z"/>
<path d="M5480 3070 c58 -10 136 -25 174 -34 38 -9 71 -14 73 -12 9 9 -281 67
-326 65 -14 0 21 -9 79 -19z"/>
<path d="M5825 2986 c136 -51 134 -50 111 -36 -23 16 -173 70 -189 70 -7 -1
29 -16 78 -34z"/>
<path d="M5961 2936 c10 -9 69 -36 69 -32 0 6 -55 36 -66 36 -4 0 -5 -2 -3 -4z"/>
<path d="M6040 2898 c3 -3 46 -33 95 -66 50 -33 124 -91 165 -127 l75 -67 -70
67 c-71 68 -157 134 -230 176 -22 12 -38 20 -35 17z"/>
<path d="M6370 2627 c0 -2 15 -16 33 -33 l32 -29 -29 33 c-28 30 -36 37 -36
29z"/>
<path d="M6430 2556 c0 -2 8 -10 18 -17 15 -13 16 -12 3 4 -13 16 -21 21 -21
13z"/>
<path d="M6460 2516 c0 -2 8 -10 18 -17 15 -13 16 -12 3 4 -13 16 -21 21 -21
13z"/>
</g>
</svg>
